<?xml version="1.0" standalone="no"?>
<!DOCTYPE svg PUBLIC "-//W3C//DTD SVG 20010904//EN"
 "http://www.w3.org/TR/2001/REC-SVG-20010904/DTD/svg10.dtd">
<svg version="1.0" xmlns="http://www.w3.org/2000/svg"
 width="516.000000pt" height="516.000000pt" viewBox="0 0 516.000000 516.000000"
 preserveAspectRatio="xMidYMid meet">

<g transform="translate(0.000000,516.000000) scale(0.100000,-0.100000)"
fill="#000000" stroke="none">
<path d="M0 2580 l0 -2580 2580 0 2580 0 0 2580 0 2580 -2580 0 -2580 0 0
-2580z m3844 47 c92 -158 169 -294 172 -302 5 -13 -26 -15 -240 -15 -135 0
-246 3 -246 6 0 3 18 37 40 75 l41 69 75 0 c42 0 74 3 72 8 -14 32 -81 142
-86 142 -4 0 -46 -67 -93 -148 l-85 -147 -148 0 -148 0 -52 90 -52 90 -57 3
-57 3 0 -78 0 -79 -75 -37 c-69 -34 -75 -35 -75 -17 0 18 -7 20 -82 20 l-83 0
-48 85 c-27 47 -52 85 -57 85 -5 0 -48 -36 -95 -80 -83 -78 -86 -81 -123 -74
-20 4 -40 12 -44 18 -5 6 -7 119 -5 251 l2 240 77 3 77 3 3 -122 3 -121 165
152 c163 150 165 152 168 121 l3 -31 206 0 c233 0 270 -9 308 -72 28 -49 27
-152 -4 -201 -12 -20 -27 -37 -32 -37 -16 0 -10 -17 32 -90 34 -58 44 -69 54
-58 6 7 76 126 155 263 139 243 161 278 165 273 1 -2 77 -132 169 -291z
m-2168 141 l-43 -73 -146 -3 c-139 -2 -147 -4 -147 -22 0 -19 7 -20 109 -20
148 0 189 -18 221 -98 16 -41 8 -143 -14 -177 -36 -55 -56 -60 -247 -63 l-177
-4 -40 74 -41 73 187 5 c157 4 187 7 187 20 0 12 -22 16 -120 20 -66 3 -129
10 -140 17 -84 48 -106 177 -45 263 39 54 63 59 292 60 l207 0 -43 -72z m417
58 c106 -32 157 -109 158 -238 1 -87 -12 -141 -43 -189 -67 -100 -300 -121
-402 -37 -59 49 -76 95 -76 213 0 147 32 204 136 245 59 23 162 26 227 6z"/>
<path d="M2790 2770 l0 -64 -56 -57 -56 -57 73 -127 74 -127 3 156 3 156 169
0 c163 0 170 1 170 20 0 18 -8 20 -147 22 l-147 3 -34 60 c-48 87 -52 88 -52
15z"/>
<path d="M1935 2681 c-42 -18 -60 -50 -60 -108 0 -49 3 -58 33 -84 27 -24 41
-29 83 -29 43 0 55 5 80 29 24 25 29 37 29 81 0 28 -5 60 -10 71 -22 40 -103
61 -155 40z"/>
</g>
</svg>
